<svg xmlns="http://www.w3.org/2000/svg" width="463.845" height="462.453"><g fill="#0083ca"><path d="M224.733 0h14.379c69.94 3.944 119.809 30.502 156.78 67.722s64.3 86.31 67.953 156.548v13.915c-3.551 71.361-31.363 118.459-67.953 156.78-38.437 36.4-85.688 63.979-157.012 67.488h-14.147c-69.932-3.952-119.809-30.5-156.78-67.721S3.652 308.422 0 238.185V224.27c.182-.051.271-.194.232-.464 3.5-69.97 30.976-119.57 67.722-156.316C104.869 30.573 155.254 3.825 224.733 0Zm-45.457 33.165a201.273 201.273 0 0 0-37.339 13.915c-34.094 16.859-62.21 40.979-81.869 71.9-19.188 30.178-35.8 69-33.4 119.9 1.517 32.093 8.84 59.089 20.408 82.1 22.845 45.437 57.625 78.916 105.758 99.264a197.938 197.938 0 0 0 86.507 15.538c31.857-1.517 59.462-8.678 82.333-20.177 44.824-22.538 80.149-57.312 99.728-105.293 9.9-24.271 17.39-52.31 15.771-86.276-3.064-64.343-29.237-107.971-63.778-141.241a199.6 199.6 0 0 0-61.923-40.586c-23.531-9.82-54.164-17.1-86.972-15.539-16.129.768-31.344 2.776-45.228 6.494Z" data-name="Path 3155"/><path d="M210.587 171.159c7.348 4.866 14.864 9.565 21.8 14.843-15.671 9.84-31.034 19.989-46.616 29.918 2.366 1.809 5.056 3.293 7.421 5.1q23.568-14.931 47.081-29.918c7.02 4.345 13.931 8.8 20.41 13.684-15.684 9.906-30.842 20.336-46.385 30.381 2.3 1.873 5.126 3.224 7.652 4.871 16.065-9.833 31.73-20.066 47.544-30.149v-32.932h34.789v65.635c9.817.54 20.642.077 30.847.23v30.847h-65.635v-31.311c-19.284 11.716-39.043 24.964-58.443 37.34-20.2-13.117-39.67-26.97-59.836-40.122-5.842 18.517-19.717 32.447-42.675 34.093-14.318 1.024-30.588-.765-47.08 0v-96.712c20.618 1.366 43.258-2.757 59.6 2.319 14.453 4.489 24.7 16.021 29.454 30.382 20.181-12.675 40.038-25.672 60.069-38.5ZM94.624 208.035v34.787c8.287.041 14.59.522 19.481-3.246 7.277-5.6 8.743-19.5 2.319-26.9-4.287-4.94-11.525-5.977-21.569-5.334-.268.036-.251.364-.231.693Zm249.55-31.078h34.788v65.865h30.614v30.847H343.94v-96.016c-.018-.329-.037-.657.234-.7Z" data-name="Path 3156"/></g></svg>